# xmcd CD database file
#
# Track frame offsets:
#	150
#	17029
#	42450
#	60468
#	71255
#	90369
#	107233
#	121756
#	133945
#	147926
#	160084
#	182837
#	195958
#
# Disc length: 2744 seconds
#
# Revision: 0
# Processed by: cddbd v1.5.2PL0 Copyright (c) Steve Scherf et al.
# Submitted via: CDex 1.51
#
DISCID=aa0ab60d
DTITLE=Various Artist - Blues July 2010
DYEAR=2010
DGENRE=Blues
TTITLE0=Delbert McClinton - Maybe Someday Baby
TTITLE1=Juvenators - '53 Buick
TTITLE2=Big Joe and The Dynaflows - Big Long Buick
TTITLE3=K. C. Douglas - Mercury Blues
TTITLE4=Left Hand Frank and His Blues Band - Linda Lu
TTITLE5=Eddie Shaw and - Sitting on Top of the World
TTITLE6=Hubert Sumlin - She's Into Something
TTITLE7=Magic Slim and The Teardrops - Room 109 
TTITLE8=King Floyd - Groove Me
TTITLE9=Sonny Boy Williamson II - Bring it on Home
TTITLE10=Andrew Brown - I Got News for You
TTITLE11=Carl Perkins - Honey Don't
TTITLE12=Buddy Holly - Rock Around With Ollie Vee
EXTD=YEAR: 2010
EXTT0=
EXTT1=
EXTT2=
EXTT3=
EXTT4=
EXTT5=
EXTT6=
EXTT7=
EXTT8=
EXTT9=
EXTT10=
EXTT11=
EXTT12=
PLAYORDER=
